# xmcd
#
# Track frame offsets:
#	150
#	8882
#	22547
#	39460
#	54285
#	63502
#	76367
#	92450
#	109315
#	121977
#	145942
#	164800
#	175632
#	189812
#	201892
#	218882
#	230047
#	243797
#	261365
#	278355
#	291337
#	308980
#
# Disc length: 4373 seconds
#
# Revision: 0
# Processed by: cddbd v1.5.1PL0 Copyright (c) Steve Scherf et al.
# Submitted via: MusicWizard 7.2.0
#
DISCID=2c111316
DTITLE=Various Artist - Traditional Country
DYEAR=1900
DGENRE=Country
TTITLE0=John Brack - Oh, Susanna
TTITLE1=Jennifer Weatherly - Life0's Railway To Heaven
TTITLE2=Billy Troy - Frankie And Johnny
TTITLE3=John Brack - Nine Pound Hammer
TTITLE4=The Nashville Pickers - Cotton Eyed Joe
TTITLE5=John Brack - On Top Of Ol'Smokey
TTITLE6=John Brack - Red River Valley
TTITLE7=Rebecca Holden - Old Paint
TTITLE8=Pam Gadd - Blue Tail Fly
TTITLE9=The Cumberland Boys - Just A Closer Walk With Thee
TTITLE10=Rebecca Holden - John Brack - Banks Of The Ohi
TTITLE11=Jennifer Weatherly - Yellow Rose Of Texas
TTITLE12=Billy Troy - Birmingham Jail
TTITLE13=John Brack - Rollin' In My Sweet Babys Arms
TTITLE14=The Nashville Pickers - Sweet Betsy From Pike
TTITLE15=Pam Gadd - Sittin' On Top Of The World
TTITLE16=John Brack - Darling Clementine
TTITLE17=The Comberlund Boys - Will The Circle Be Unbroken
TTITLE18=John Brack - Cowboys Dream
TTITLE19=Billy Troy - Bury Me Not On The Lone Prairie
TTITLE20=Joyce'n Webber - Midnight Special
TTITLE21=John Brack - In The Pines
EXTD=
EXTT0=
EXTT1=
EXTT2=
EXTT3=
EXTT4=
EXTT5=
EXTT6=
EXTT7=
EXTT8=
EXTT9=
EXTT10=
EXTT11=
EXTT12=
EXTT13=
EXTT14=
EXTT15=
EXTT16=
EXTT17=
EXTT18=
EXTT19=
EXTT20=
EXTT21=
PLAYORDER=
